<svg width="20" height="20" viewBox="0 0 20 20" fill="none" xmlns="http://www.w3.org/2000/svg">
<rect width="20" height="20" rx="10" fill="#1F294F"/>
<path d="M9.99258 15.625C9.31258 15.625 8.66508 15.505 8.05008 15.265C7.43508 15.02 6.89008 14.66 6.41508 14.185C5.94508 13.71 5.57258 13.1225 5.29758 12.4225C5.02758 11.7225 4.89258 10.915 4.89258 10C4.89258 8.805 5.12008 7.79 5.57508 6.955C6.03508 6.115 6.65008 5.475 7.42008 5.035C8.19508 4.595 9.05258 4.375 9.99258 4.375C11.3826 4.375 12.4751 4.6975 13.2701 5.3425C14.0651 5.9875 14.5976 6.9 14.8676 8.08L12.7826 8.38C12.5876 7.75 12.2676 7.2475 11.8226 6.8725C11.3826 6.4925 10.8176 6.3 10.1276 6.295C9.44258 6.285 8.87258 6.4325 8.41758 6.7375C7.96258 7.0425 7.62008 7.475 7.39008 8.035C7.16508 8.595 7.05258 9.25 7.05258 10C7.05258 10.75 7.16508 11.4 7.39008 11.95C7.62008 12.5 7.96258 12.9275 8.41758 13.2325C8.87258 13.5375 9.44258 13.695 10.1276 13.705C10.5926 13.715 11.0126 13.635 11.3876 13.465C11.7676 13.295 12.0876 13.0275 12.3476 12.6625C12.6076 12.2975 12.7926 11.83 12.9026 11.26H11.1926V9.685H15.0776C15.0876 9.75 15.0951 9.865 15.1001 10.03C15.1051 10.195 15.1076 10.29 15.1076 10.315C15.1076 11.35 14.8976 12.2675 14.4776 13.0675C14.0576 13.8675 13.4651 14.495 12.7001 14.95C11.9351 15.4 11.0326 15.625 9.99258 15.625Z" fill="white"/>
</svg>
