<svg width="15" height="15" viewBox="0 0 15 15" fill="none" xmlns="http://www.w3.org/2000/svg">
<rect width="15" height="15" rx="7.5" fill="#1F294F"/>
<path d="M7.49439 11.625C6.99573 11.625 6.52089 11.537 6.06989 11.361C5.61889 11.1813 5.21923 10.9173 4.87089 10.569C4.52623 10.2207 4.25306 9.78983 4.05139 9.2765C3.85339 8.76317 3.75439 8.171 3.75439 7.5C3.75439 6.62367 3.92123 5.87933 4.25489 5.267C4.59223 4.651 5.04323 4.18167 5.60789 3.859C6.17623 3.53633 6.80506 3.375 7.49439 3.375C8.51373 3.375 9.31489 3.6115 9.89789 4.0845C10.4809 4.5575 10.8714 5.22667 11.0694 6.092L9.54039 6.312C9.39739 5.85 9.16273 5.4815 8.83639 5.2065C8.51373 4.92783 8.09939 4.78667 7.59339 4.783C7.09106 4.77567 6.67306 4.88383 6.33939 5.1075C6.00573 5.33117 5.75456 5.64833 5.58589 6.059C5.42089 6.46967 5.33839 6.95 5.33839 7.5C5.33839 8.05 5.42089 8.52667 5.58589 8.93C5.75456 9.33333 6.00573 9.64683 6.33939 9.8705C6.67306 10.0942 7.09106 10.2097 7.59339 10.217C7.93439 10.2243 8.24239 10.1657 8.5174 10.041C8.79606 9.91633 9.03073 9.72017 9.22139 9.4525C9.41206 9.18483 9.54773 8.842 9.6284 8.424H8.37439V7.269H11.2234C11.2307 7.31667 11.2362 7.401 11.2399 7.522C11.2436 7.643 11.2454 7.71267 11.2454 7.731C11.2454 8.49 11.0914 9.16283 10.7834 9.7495C10.4754 10.3362 10.0409 10.7963 9.4799 11.13C8.9189 11.46 8.25706 11.625 7.49439 11.625Z" fill="white"/>
</svg>
