<svg width="20" height="20" viewBox="0 0 20 20" fill="none" xmlns="http://www.w3.org/2000/svg">
<rect width="20" height="20" rx="10" fill="#1F294F"/>
<path d="M5.875 15.3996V4.59961H10.435C10.54 4.59961 10.68 4.60461 10.855 4.61461C11.035 4.61961 11.195 4.63461 11.335 4.65961C11.98 4.75961 12.5075 4.97211 12.9175 5.29711C13.3325 5.62211 13.6375 6.03211 13.8325 6.52711C14.0275 7.01711 14.125 7.56461 14.125 8.16961C14.125 8.77461 14.025 9.32461 13.825 9.81961C13.63 10.3096 13.325 10.7171 12.91 11.0421C12.5 11.3671 11.975 11.5796 11.335 11.6796C11.195 11.6996 11.035 11.7146 10.855 11.7246C10.675 11.7346 10.535 11.7396 10.435 11.7396H7.915V15.3996H5.875ZM7.915 9.83461H10.345C10.45 9.83461 10.565 9.82961 10.69 9.81961C10.815 9.80961 10.93 9.78961 11.035 9.75961C11.31 9.68461 11.5225 9.55961 11.6725 9.38461C11.8225 9.20461 11.925 9.00711 11.98 8.79211C12.04 8.57211 12.07 8.36461 12.07 8.16961C12.07 7.97461 12.04 7.76961 11.98 7.55461C11.925 7.33461 11.8225 7.13711 11.6725 6.96211C11.5225 6.78211 11.31 6.65461 11.035 6.57961C10.93 6.54961 10.815 6.52961 10.69 6.51961C10.565 6.50961 10.45 6.50461 10.345 6.50461H7.915V9.83461Z" fill="white"/>
</svg>
