<svg width="15" height="15" viewBox="0 0 15 15" fill="none" xmlns="http://www.w3.org/2000/svg">
<rect width="15" height="15" rx="7.5" fill="#1F294F"/>
<path d="M4.4751 11.46V3.54004H7.8191C7.8961 3.54004 7.99876 3.54371 8.1271 3.55104C8.2591 3.55471 8.37643 3.56571 8.4791 3.58404C8.9521 3.65737 9.33893 3.81321 9.6396 4.05154C9.94393 4.28987 10.1676 4.59054 10.3106 4.95354C10.4536 5.31287 10.5251 5.71437 10.5251 6.15804C10.5251 6.60171 10.4518 7.00504 10.3051 7.36804C10.1621 7.72737 9.93843 8.02621 9.6341 8.26454C9.33343 8.50287 8.94843 8.65871 8.4791 8.73204C8.37643 8.74671 8.2591 8.75771 8.1271 8.76504C7.9951 8.77237 7.89243 8.77604 7.8191 8.77604H5.9711V11.46H4.4751ZM5.9711 7.37904H7.7531C7.8301 7.37904 7.91443 7.37537 8.0061 7.36804C8.09776 7.36071 8.1821 7.34604 8.2591 7.32404C8.46076 7.26904 8.6166 7.17737 8.7266 7.04904C8.8366 6.91704 8.91176 6.77221 8.9521 6.61454C8.9961 6.45321 9.0181 6.30104 9.0181 6.15804C9.0181 6.01504 8.9961 5.86471 8.9521 5.70704C8.91176 5.54571 8.8366 5.40087 8.7266 5.27254C8.6166 5.14054 8.46076 5.04704 8.2591 4.99204C8.1821 4.97004 8.09776 4.95537 8.0061 4.94804C7.91443 4.94071 7.8301 4.93704 7.7531 4.93704H5.9711V7.37904Z" fill="white"/>
</svg>
